<?xml version="1.0" encoding="UTF-8" standalone="no"?>
<!-- Created with Inkscape (http://www.inkscape.org/) -->

<svg
   xmlns:dc="http://purl.org/dc/elements/1.1/"
   xmlns:cc="http://creativecommons.org/ns#"
   xmlns:rdf="http://www.w3.org/1999/02/22-rdf-syntax-ns#"
   xmlns:svg="http://www.w3.org/2000/svg"
   xmlns="http://www.w3.org/2000/svg"
   xmlns:sodipodi="http://sodipodi.sourceforge.net/DTD/sodipodi-0.dtd"
   xmlns:inkscape="http://www.inkscape.org/namespaces/inkscape"
   width="266.83304"
   height="161.51128"
   id="svg4994"
   version="1.1"
   inkscape:version="0.48.5 r10040"
   sodipodi:docname="New document 4">
  <defs
     id="defs4996">
    <clipPath
       id="clipPath3321"
       clipPathUnits="userSpaceOnUse">
      <path
         inkscape:connector-curvature="0"
         id="path3323"
         d="m 0,848.693 668.693,0 L 668.693,0 0,0 0,848.693 z" />
    </clipPath>
    <clipPath
       id="clipPath3275"
       clipPathUnits="userSpaceOnUse">
      <path
         inkscape:connector-curvature="0"
         id="path3277"
         d="m 401.305,453.326 c 0,-10.8 6.48,-17.159 14.338,-17.159 l 0,0 c 7.862,0 14.041,5.939 14.041,15.359 l 0,0 0,2.28 -23.458,0 c 0.119,9.119 4.019,12.24 10.497,12.24 l 0,0 c 4.801,0 8.581,-1.08 11.641,-2.821 l 0,0 0,4.981 c -3,1.319 -7.199,2.34 -11.759,2.34 l 0,0 c -9.061,0 -15.3,-5.34 -15.3,-17.22 m 5.22,-3.3 18.419,0 c -0.301,-4.619 -4.38,-9.48 -9.301,-9.48 l 0,0 c -5.039,0 -8.218,4.26 -9.118,9.48" />
    </clipPath>
    <mask
       id="mask3293"
       height="1"
       width="1"
       y="0"
       x="0"
       maskUnits="userSpaceOnUse">
      <g
         id="g3295">
        <g
           id="g3297">
          <g
             id="g3299">
            <g
               id="g3301">
              <path
                 inkscape:connector-curvature="0"
                 id="path3303"
                 style="fill:url(#linearGradient3287);stroke:none"
                 d="m -32768,32767 65535,0 0,-65535 -65535,0 0,65535 z" />
            </g>
          </g>
        </g>
      </g>
    </mask>
    <linearGradient
       id="linearGradient3287"
       spreadMethod="pad"
       gradientTransform="matrix(-1.5e-6,34.378906,34.378906,1.5e-6,415.49512,436.16699)"
       gradientUnits="userSpaceOnUse"
       y2="0"
       x2="1"
       y1="0"
       x1="0">
      <stop
         id="stop3289"
         offset="0"
         style="stop-opacity:0;stop-color:#ffffff" />
      <stop
         id="stop3291"
         offset="1"
         style="stop-opacity:1;stop-color:#ffffff" />
    </linearGradient>
    <linearGradient
       id="linearGradient3309"
       spreadMethod="pad"
       gradientTransform="matrix(-1.5e-6,34.378906,34.378906,1.5e-6,415.49512,436.16699)"
       gradientUnits="userSpaceOnUse"
       y2="0"
       x2="1"
       y1="0"
       x1="0">
      <stop
         id="stop3311"
         offset="0"
         style="stop-opacity:1;stop-color:#ffffff" />
      <stop
         id="stop3313"
         offset="1"
         style="stop-opacity:1;stop-color:#b8babc" />
    </linearGradient>
    <clipPath
       id="clipPath3229"
       clipPathUnits="userSpaceOnUse">
      <path
         inkscape:connector-curvature="0"
         id="path3231"
         d="m 390.326,470.126 0,-18.301 c 0,-6.718 -2.521,-11.279 -7.021,-11.279 l 0,0 c -4.079,0 -7.92,1.862 -10.38,4.679 l 0,0 0,24.901 -4.979,0 0,-33.36 4.318,0 0.602,3.841 c 2.879,-2.761 6.779,-4.5 10.559,-4.5 l 0,0 c 9.061,0 11.878,6.66 11.878,15.778 l 0,0 0,18.241 -4.977,0 z" />
    </clipPath>
    <mask
       id="mask3247"
       height="1"
       width="1"
       y="0"
       x="0"
       maskUnits="userSpaceOnUse">
      <g
         id="g3249">
        <g
           id="g3251">
          <g
             id="g3253">
            <g
               id="g3255">
              <path
                 inkscape:connector-curvature="0"
                 id="path3257"
                 style="fill:url(#linearGradient3241);stroke:none"
                 d="m -32768,32767 65535,0 0,-65535 -65535,0 0,65535 z" />
            </g>
          </g>
        </g>
      </g>
    </mask>
    <linearGradient
       id="linearGradient3241"
       spreadMethod="pad"
       gradientTransform="matrix(-1.5e-6,34.019531,34.019531,1.5e-6,381.625,436.10645)"
       gradientUnits="userSpaceOnUse"
       y2="0"
       x2="1"
       y1="0"
       x1="0">
      <stop
         id="stop3243"
         offset="0"
         style="stop-opacity:0;stop-color:#ffffff" />
      <stop
         id="stop3245"
         offset="1"
         style="stop-opacity:1;stop-color:#ffffff" />
    </linearGradient>
    <linearGradient
       id="linearGradient3263"
       spreadMethod="pad"
       gradientTransform="matrix(-1.5e-6,34.019531,34.019531,1.5e-6,381.625,436.10645)"
       gradientUnits="userSpaceOnUse"
       y2="0"
       x2="1"
       y1="0"
       x1="0">
      <stop
         id="stop3265"
         offset="0"
         style="stop-opacity:1;stop-color:#ffffff" />
      <stop
         id="stop3267"
         offset="1"
         style="stop-opacity:1;stop-color:#b8babc" />
    </linearGradient>
    <clipPath
       id="clipPath3183"
       clipPathUnits="userSpaceOnUse">
      <path
         inkscape:connector-curvature="0"
         id="path3185"
         d="m 354.146,436.766 4.981,0 0,33.359 -4.981,0 0,-33.359 z m -0.119,-7.379 -0.122,-0.06 0,-4.981 5.401,0 0,5.041 -5.279,0 z" />
    </clipPath>
    <mask
       id="mask3201"
       height="1"
       width="1"
       y="0"
       x="0"
       maskUnits="userSpaceOnUse">
      <g
         id="g3203">
        <g
           id="g3205">
          <g
             id="g3207">
            <g
               id="g3209">
              <path
                 inkscape:connector-curvature="0"
                 id="path3211"
                 style="fill:url(#linearGradient3195);stroke:none"
                 d="m -32768,32767 65535,0 0,-65535 -65535,0 0,65535 z" />
            </g>
          </g>
        </g>
      </g>
    </mask>
    <linearGradient
       id="linearGradient3195"
       spreadMethod="pad"
       gradientTransform="matrix(-2e-6,45.779297,45.779297,2e-6,356.60547,424.34668)"
       gradientUnits="userSpaceOnUse"
       y2="0"
       x2="1"
       y1="0"
       x1="0">
      <stop
         id="stop3197"
         offset="0"
         style="stop-opacity:0;stop-color:#ffffff" />
      <stop
         id="stop3199"
         offset="1"
         style="stop-opacity:1;stop-color:#ffffff" />
    </linearGradient>
    <linearGradient
       id="linearGradient3217"
       spreadMethod="pad"
       gradientTransform="matrix(-2e-6,45.779297,45.779297,2e-6,356.60547,424.34668)"
       gradientUnits="userSpaceOnUse"
       y2="0"
       x2="1"
       y1="0"
       x1="0">
      <stop
         id="stop3219"
         offset="0"
         style="stop-opacity:1;stop-color:#ffffff" />
      <stop
         id="stop3221"
         offset="1"
         style="stop-opacity:1;stop-color:#b8babc" />
    </linearGradient>
    <clipPath
       id="clipPath3137"
       clipPathUnits="userSpaceOnUse">
      <path
         inkscape:connector-curvature="0"
         id="path3139"
         d="m 341.263,470.229 c -0.906,-0.748 -2.166,-1.217 -3.617,-1.363 l 0,0 c -3.301,-0.361 -8.099,-0.48 -11.401,-0.842 l 0,0 c -0.238,0 -0.478,0 -0.719,-0.058 l 0,0 c -1.222,0.732 -2.195,1.524 -2.919,2.263 l 0,0 -4.692,0 c 0.887,-1.367 2.219,-2.595 3.952,-3.523 l 0,0 c -1.921,-1.259 -3.299,-3 -3.299,-5.641 l 0,0 c 0,-2.34 1.918,-4.08 3.838,-5.459 l 0,0 c -2.338,-2.1 -3.418,-5.041 -3.418,-8.279 l 0,0 c 0,-4.919 3.599,-11.16 12.36,-11.16 l 0,0 c 2.638,0 4.858,0.599 6.598,1.5 l 0,0 c 0.6,-1.68 1.92,-4.259 4.499,-4.259 l 0,0 c 2.941,0 5.759,1.018 5.759,1.018 l 0,0 0,3.54 c 0,0 -4.078,-1.2 -5.459,-0.779 l 0,0 c -0.779,0.24 -1.5,1.499 -1.981,2.58 l 0,0 c 2.102,2.22 3.061,5.039 3.061,7.56 l 0,0 c 0,5.879 -3.66,11.039 -12.477,11.039 l 0,0 c -2.342,0 -4.263,-0.361 -5.882,-0.961 l 0,0 c -1.499,1.02 -2.699,1.861 -2.699,3.301 l 0,0 c 0,1.68 1.859,2.94 3.779,3.24 l 0,0 c 3.18,0.479 8.34,0.479 12.359,0.959 l 0,0 c 3.072,0.373 6.467,2.039 7.836,5.324 l 0,0 -5.478,0 z m -17.897,-22.902 c 0,3.719 2.581,7.199 7.982,7.199 l 0,0 c 5.518,0 8.037,-3.48 8.037,-7.199 l 0,0 c 0,-3.602 -2.519,-7.201 -8.037,-7.201 l 0,0 c -5.522,0 -7.982,3.599 -7.982,7.201" />
    </clipPath>
    <mask
       id="mask3155"
       height="1"
       width="1"
       y="0"
       x="0"
       maskUnits="userSpaceOnUse">
      <g
         id="g3157">
        <g
           id="g3159">
          <g
             id="g3161">
            <g
               id="g3163">
              <path
                 inkscape:connector-curvature="0"
                 id="path3165"
                 style="fill:url(#linearGradient3149);stroke:none"
                 d="m -32768,32767 65535,0 0,-65535 -65535,0 0,65535 z" />
            </g>
          </g>
        </g>
      </g>
    </mask>
    <linearGradient
       id="linearGradient3149"
       spreadMethod="pad"
       gradientTransform="matrix(-1.6e-6,36.822266,36.822266,1.6e-6,333.06006,433.40723)"
       gradientUnits="userSpaceOnUse"
       y2="0"
       x2="1"
       y1="0"
       x1="0">
      <stop
         id="stop3151"
         offset="0"
         style="stop-opacity:0;stop-color:#ffffff" />
      <stop
         id="stop3153"
         offset="1"
         style="stop-opacity:1;stop-color:#ffffff" />
    </linearGradient>
    <linearGradient
       id="linearGradient3171"
       spreadMethod="pad"
       gradientTransform="matrix(-1.6e-6,36.822266,36.822266,1.6e-6,333.06006,433.40723)"
       gradientUnits="userSpaceOnUse"
       y2="0"
       x2="1"
       y1="0"
       x1="0">
      <stop
         id="stop3173"
         offset="0"
         style="stop-opacity:1;stop-color:#ffffff" />
      <stop
         id="stop3175"
         offset="1"
         style="stop-opacity:1;stop-color:#b8babc" />
    </linearGradient>
    <clipPath
       id="clipPath3091"
       clipPathUnits="userSpaceOnUse">
      <path
         inkscape:connector-curvature="0"
         id="path3093"
         d="m 306.328,466.105 c -2.461,2.341 -6.301,4.441 -9.96,4.441 l 0,0 c -7.079,0 -12.12,-2.76 -12.12,-8.641 l 0,0 c 0,-5.279 3.961,-10.08 12.42,-10.26 l 0,0 c 2.519,-0.058 6.54,0 9,0.122 l 0,0 c 0,-2.1 0.06,-3.721 0.06,-3.961 l 0,0 c -0.121,-4.68 -2.881,-7.081 -5.94,-7.081 l 0,0 c -4.38,0 -9.179,1.621 -12.781,3.961 l 0,0 0,-4.919 c 3.602,-2.039 7.981,-3.6 12.841,-3.6 l 0,0 c 6.059,0 10.559,4.08 10.559,11.879 l 0,0 0,13.32 c 0,2.819 1.081,4.799 2.639,5.94 l 0,0 -3.118,3.359 c -1.801,-0.959 -2.94,-2.821 -3.6,-4.56 m -9.481,-10.739 c -5.999,0.18 -7.738,3.539 -7.738,6.059 l 0,0 c 0,3.781 2.879,4.98 7.498,4.98 l 0,0 c 2.881,0 6.419,-1.799 9.18,-4.199 l 0,0 c -0.119,-2.1 -0.18,-4.56 -0.18,-6.901 l 0,0 c -0.771,-0.024 -1.798,-0.039 -2.989,-0.039 l 0,0 c -1.685,0 -3.697,0.029 -5.771,0.1" />
    </clipPath>
    <mask
       id="mask3109"
       height="1"
       width="1"
       y="0"
       x="0"
       maskUnits="userSpaceOnUse">
      <g
         id="g3111">
        <g
           id="g3113">
          <g
             id="g3115">
            <g
               id="g3117">
              <path
                 inkscape:connector-curvature="0"
                 id="path3119"
                 style="fill:url(#linearGradient3103);stroke:none"
                 d="m -32768,32767 65535,0 0,-65535 -65535,0 0,65535 z" />
            </g>
          </g>
        </g>
      </g>
    </mask>
    <linearGradient
       id="linearGradient3103"
       spreadMethod="pad"
       gradientTransform="matrix(-1.5e-6,34.498047,34.498047,1.5e-6,298.64697,436.16699)"
       gradientUnits="userSpaceOnUse"
       y2="0"
       x2="1"
       y1="0"
       x1="0">
      <stop
         id="stop3105"
         offset="0"
         style="stop-opacity:0;stop-color:#ffffff" />
      <stop
         id="stop3107"
         offset="1"
         style="stop-opacity:1;stop-color:#ffffff" />
    </linearGradient>
    <linearGradient
       id="linearGradient3125"
       spreadMethod="pad"
       gradientTransform="matrix(-1.5e-6,34.498047,34.498047,1.5e-6,298.64697,436.16699)"
       gradientUnits="userSpaceOnUse"
       y2="0"
       x2="1"
       y1="0"
       x1="0">
      <stop
         id="stop3127"
         offset="0"
         style="stop-opacity:1;stop-color:#ffffff" />
      <stop
         id="stop3129"
         offset="1"
         style="stop-opacity:1;stop-color:#b8babc" />
    </linearGradient>
    <clipPath
       id="clipPath3045"
       clipPathUnits="userSpaceOnUse">
      <path
         inkscape:connector-curvature="0"
         id="path3047"
         d="m 273.566,470.126 0,-18.301 c 0,-6.718 -2.519,-11.279 -7.019,-11.279 l 0,0 c -3.719,0 -7.199,1.5 -9.659,3.9 l 0,0 c 0.6,2.16 0.84,4.68 0.84,7.439 l 0,0 0,18.241 -4.98,0 0,-18.301 c 0,-6.718 -2.52,-11.279 -7.02,-11.279 l 0,0 c -4.08,0 -7.92,1.862 -10.379,4.679 l 0,0 0,24.901 -4.981,0 0,-33.36 4.321,0 0.6,3.841 c 2.879,-2.761 6.779,-4.5 10.559,-4.5 l 0,0 c 4.86,0 7.919,1.919 9.72,5.099 l 0,0 c 2.879,-3.058 7.08,-5.099 11.099,-5.099 l 0,0 c 9.059,0 11.879,6.66 11.879,15.778 l 0,0 0,18.241 -4.98,0 z" />
    </clipPath>
    <mask
       id="mask3063"
       height="1"
       width="1"
       y="0"
       x="0"
       maskUnits="userSpaceOnUse">
      <g
         id="g3065">
        <g
           id="g3067">
          <g
             id="g3069">
            <g
               id="g3071">
              <path
                 inkscape:connector-curvature="0"
                 id="path3073"
                 style="fill:url(#linearGradient3057);stroke:none"
                 d="m -32768,32767 65535,0 0,-65535 -65535,0 0,65535 z" />
            </g>
          </g>
        </g>
      </g>
    </mask>
    <linearGradient
       id="linearGradient3057"
       spreadMethod="pad"
       gradientTransform="matrix(-1.5e-6,34.019531,34.019531,1.5e-6,254.45752,436.10645)"
       gradientUnits="userSpaceOnUse"
       y2="0"
       x2="1"
       y1="0"
       x1="0">
      <stop
         id="stop3059"
         offset="0"
         style="stop-opacity:0;stop-color:#ffffff" />
      <stop
         id="stop3061"
         offset="1"
         style="stop-opacity:1;stop-color:#ffffff" />
    </linearGradient>
    <linearGradient
       id="linearGradient3079"
       spreadMethod="pad"
       gradientTransform="matrix(-1.5e-6,34.019531,34.019531,1.5e-6,254.45752,436.10645)"
       gradientUnits="userSpaceOnUse"
       y2="0"
       x2="1"
       y1="0"
       x1="0">
      <stop
         id="stop3081"
         offset="0"
         style="stop-opacity:1;stop-color:#ffffff" />
      <stop
         id="stop3083"
         offset="1"
         style="stop-opacity:1;stop-color:#b8babc" />
    </linearGradient>
    <clipPath
       id="clipPath2999"
       clipPathUnits="userSpaceOnUse">
      <path
         inkscape:connector-curvature="0"
         id="path3001"
         d="m 221.548,436.767 -4.979,0 0,33.359 4.979,0 0,-33.359 z m -5.099,-7.379 5.279,0 0,-5.041 -5.398,0 0,4.98 0.119,0.061 z" />
    </clipPath>
    <mask
       id="mask3017"
       height="1"
       width="1"
       y="0"
       x="0"
       maskUnits="userSpaceOnUse">
      <g
         id="g3019">
        <g
           id="g3021">
          <g
             id="g3023">
            <g
               id="g3025">
              <path
                 inkscape:connector-curvature="0"
                 id="path3027"
                 style="fill:url(#linearGradient3011);stroke:none"
                 d="m -32768,32767 65535,0 0,-65535 -65535,0 0,65535 z" />
            </g>
          </g>
        </g>
      </g>
    </mask>
    <linearGradient
       id="linearGradient3011"
       spreadMethod="pad"
       gradientTransform="matrix(-2e-6,45.779297,45.779297,2e-6,219.02881,424.34668)"
       gradientUnits="userSpaceOnUse"
       y2="0"
       x2="1"
       y1="0"
       x1="0">
      <stop
         id="stop3013"
         offset="0"
         style="stop-opacity:0;stop-color:#ffffff" />
      <stop
         id="stop3015"
         offset="1"
         style="stop-opacity:1;stop-color:#ffffff" />
    </linearGradient>
    <linearGradient
       id="linearGradient3033"
       spreadMethod="pad"
       gradientTransform="matrix(-2e-6,45.779297,45.779297,2e-6,219.02881,424.34668)"
       gradientUnits="userSpaceOnUse"
       y2="0"
       x2="1"
       y1="0"
       x1="0">
      <stop
         id="stop3035"
         offset="0"
         style="stop-opacity:1;stop-color:#ffffff" />
      <stop
         id="stop3037"
         offset="1"
         style="stop-opacity:1;stop-color:#b8babc" />
    </linearGradient>
  </defs>
  <sodipodi:namedview
     id="base"
     pagecolor="#ffffff"
     bordercolor="#666666"
     borderopacity="1.0"
     inkscape:pageopacity="0.0"
     inkscape:pageshadow="2"
     inkscape:zoom="0.35"
     inkscape:cx="99.845089"
     inkscape:cy="43.612817"
     inkscape:document-units="px"
     inkscape:current-layer="layer1"
     showgrid="false"
     fit-margin-top="0"
     fit-margin-left="0"
     fit-margin-right="0"
     fit-margin-bottom="0"
     inkscape:window-width="463"
     inkscape:window-height="423"
     inkscape:window-x="52"
     inkscape:window-y="52"
     inkscape:window-maximized="0" />
  <metadata
     id="metadata4999">
    <rdf:RDF>
      <cc:Work
         rdf:about="">
        <dc:format>image/svg+xml</dc:format>
        <dc:type
           rdf:resource="http://purl.org/dc/dcmitype/StillImage" />
        <dc:title></dc:title>
      </cc:Work>
    </rdf:RDF>
  </metadata>
  <g
     inkscape:label="Layer 1"
     inkscape:groupmode="layer"
     id="layer1"
     transform="translate(-275.15491,-414.46373)">
    <g
       transform="matrix(1.25,0,0,-1.25,4.7424112,1106.4075)"
       id="g2995">
      <g
         clip-path="url(#clipPath2999)"
         id="g2997">
        <g
           id="g3003">
          <g
             id="g3005" />
          <g
             mask="url(#mask3017)"
             id="g3029">
            <g
               id="g3031">
              <path
                 id="path3039"
                 style="fill:url(#linearGradient3033);stroke:none"
                 d="m 221.548,436.767 -4.979,0 0,33.359 4.979,0 0,-33.359 z m -5.099,-7.379 5.279,0 0,-5.041 -5.398,0 0,4.98 0.119,0.061 z"
                 inkscape:connector-curvature="0" />
            </g>
          </g>
        </g>
      </g>
    </g>
    <g
       transform="matrix(1.25,0,0,-1.25,4.7424112,1106.4075)"
       id="g3041">
      <g
         clip-path="url(#clipPath3045)"
         id="g3043">
        <g
           id="g3049">
          <g
             id="g3051" />
          <g
             mask="url(#mask3063)"
             id="g3075">
            <g
               id="g3077">
              <path
                 id="path3085"
                 style="fill:url(#linearGradient3079);stroke:none"
                 d="m 273.566,470.126 0,-18.301 c 0,-6.718 -2.519,-11.279 -7.019,-11.279 l 0,0 c -3.719,0 -7.199,1.5 -9.659,3.9 l 0,0 c 0.6,2.16 0.84,4.68 0.84,7.439 l 0,0 0,18.241 -4.98,0 0,-18.301 c 0,-6.718 -2.52,-11.279 -7.02,-11.279 l 0,0 c -4.08,0 -7.92,1.862 -10.379,4.679 l 0,0 0,24.901 -4.981,0 0,-33.36 4.321,0 0.6,3.841 c 2.879,-2.761 6.779,-4.5 10.559,-4.5 l 0,0 c 4.86,0 7.919,1.919 9.72,5.099 l 0,0 c 2.879,-3.058 7.08,-5.099 11.099,-5.099 l 0,0 c 9.059,0 11.879,6.66 11.879,15.778 l 0,0 0,18.241 -4.98,0 z"
                 inkscape:connector-curvature="0" />
            </g>
          </g>
        </g>
      </g>
    </g>
    <g
       transform="matrix(1.25,0,0,-1.25,4.7424112,1106.4075)"
       id="g3087">
      <g
         clip-path="url(#clipPath3091)"
         id="g3089">
        <g
           id="g3095">
          <g
             id="g3097" />
          <g
             mask="url(#mask3109)"
             id="g3121">
            <g
               id="g3123">
              <path
                 id="path3131"
                 style="fill:url(#linearGradient3125);stroke:none"
                 d="m 306.328,466.105 c -2.461,2.341 -6.301,4.441 -9.96,4.441 l 0,0 c -7.079,0 -12.12,-2.76 -12.12,-8.641 l 0,0 c 0,-5.279 3.961,-10.08 12.42,-10.26 l 0,0 c 2.519,-0.058 6.54,0 9,0.122 l 0,0 c 0,-2.1 0.06,-3.721 0.06,-3.961 l 0,0 c -0.121,-4.68 -2.881,-7.081 -5.94,-7.081 l 0,0 c -4.38,0 -9.179,1.621 -12.781,3.961 l 0,0 0,-4.919 c 3.602,-2.039 7.981,-3.6 12.841,-3.6 l 0,0 c 6.059,0 10.559,4.08 10.559,11.879 l 0,0 0,13.32 c 0,2.819 1.081,4.799 2.639,5.94 l 0,0 -3.118,3.359 c -1.801,-0.959 -2.94,-2.821 -3.6,-4.56 m -9.481,-10.739 c -5.999,0.18 -7.738,3.539 -7.738,6.059 l 0,0 c 0,3.781 2.879,4.98 7.498,4.98 l 0,0 c 2.881,0 6.419,-1.799 9.18,-4.199 l 0,0 c -0.119,-2.1 -0.18,-4.56 -0.18,-6.901 l 0,0 c -0.771,-0.024 -1.798,-0.039 -2.989,-0.039 l 0,0 c -1.685,0 -3.697,0.029 -5.771,0.1"
                 inkscape:connector-curvature="0" />
            </g>
          </g>
        </g>
      </g>
    </g>
    <g
       transform="matrix(1.25,0,0,-1.25,4.7424112,1106.4075)"
       id="g3133">
      <g
         clip-path="url(#clipPath3137)"
         id="g3135">
        <g
           id="g3141">
          <g
             id="g3143" />
          <g
             mask="url(#mask3155)"
             id="g3167">
            <g
               id="g3169">
              <path
                 id="path3177"
                 style="fill:url(#linearGradient3171);stroke:none"
                 d="m 341.263,470.229 c -0.906,-0.748 -2.166,-1.217 -3.617,-1.363 l 0,0 c -3.301,-0.361 -8.099,-0.48 -11.401,-0.842 l 0,0 c -0.238,0 -0.478,0 -0.719,-0.058 l 0,0 c -1.222,0.732 -2.195,1.524 -2.919,2.263 l 0,0 -4.692,0 c 0.887,-1.367 2.219,-2.595 3.952,-3.523 l 0,0 c -1.921,-1.259 -3.299,-3 -3.299,-5.641 l 0,0 c 0,-2.34 1.918,-4.08 3.838,-5.459 l 0,0 c -2.338,-2.1 -3.418,-5.041 -3.418,-8.279 l 0,0 c 0,-4.919 3.599,-11.16 12.36,-11.16 l 0,0 c 2.638,0 4.858,0.599 6.598,1.5 l 0,0 c 0.6,-1.68 1.92,-4.259 4.499,-4.259 l 0,0 c 2.941,0 5.759,1.018 5.759,1.018 l 0,0 0,3.54 c 0,0 -4.078,-1.2 -5.459,-0.779 l 0,0 c -0.779,0.24 -1.5,1.499 -1.981,2.58 l 0,0 c 2.102,2.22 3.061,5.039 3.061,7.56 l 0,0 c 0,5.879 -3.66,11.039 -12.477,11.039 l 0,0 c -2.342,0 -4.263,-0.361 -5.882,-0.961 l 0,0 c -1.499,1.02 -2.699,1.861 -2.699,3.301 l 0,0 c 0,1.68 1.859,2.94 3.779,3.24 l 0,0 c 3.18,0.479 8.34,0.479 12.359,0.959 l 0,0 c 3.072,0.373 6.467,2.039 7.836,5.324 l 0,0 -5.478,0 z m -17.897,-22.902 c 0,3.719 2.581,7.199 7.982,7.199 l 0,0 c 5.518,0 8.037,-3.48 8.037,-7.199 l 0,0 c 0,-3.602 -2.519,-7.201 -8.037,-7.201 l 0,0 c -5.522,0 -7.982,3.599 -7.982,7.201"
                 inkscape:connector-curvature="0" />
            </g>
          </g>
        </g>
      </g>
    </g>
    <g
       transform="matrix(1.25,0,0,-1.25,4.7424112,1106.4075)"
       id="g3179">
      <g
         clip-path="url(#clipPath3183)"
         id="g3181">
        <g
           id="g3187">
          <g
             id="g3189" />
          <g
             mask="url(#mask3201)"
             id="g3213">
            <g
               id="g3215">
              <path
                 id="path3223"
                 style="fill:url(#linearGradient3217);stroke:none"
                 d="m 354.146,436.766 4.981,0 0,33.359 -4.981,0 0,-33.359 z m -0.119,-7.379 -0.122,-0.06 0,-4.981 5.401,0 0,5.041 -5.279,0 z"
                 inkscape:connector-curvature="0" />
            </g>
          </g>
        </g>
      </g>
    </g>
    <g
       transform="matrix(1.25,0,0,-1.25,4.7424112,1106.4075)"
       id="g3225">
      <g
         clip-path="url(#clipPath3229)"
         id="g3227">
        <g
           id="g3233">
          <g
             id="g3235" />
          <g
             mask="url(#mask3247)"
             id="g3259">
            <g
               id="g3261">
              <path
                 id="path3269"
                 style="fill:url(#linearGradient3263);stroke:none"
                 d="m 390.326,470.126 0,-18.301 c 0,-6.718 -2.521,-11.279 -7.021,-11.279 l 0,0 c -4.079,0 -7.92,1.862 -10.38,4.679 l 0,0 0,24.901 -4.979,0 0,-33.36 4.318,0 0.602,3.841 c 2.879,-2.761 6.779,-4.5 10.559,-4.5 l 0,0 c 9.061,0 11.878,6.66 11.878,15.778 l 0,0 0,18.241 -4.977,0 z"
                 inkscape:connector-curvature="0" />
            </g>
          </g>
        </g>
      </g>
    </g>
    <g
       transform="matrix(1.25,0,0,-1.25,4.7424112,1106.4075)"
       id="g3271">
      <g
         clip-path="url(#clipPath3275)"
         id="g3273">
        <g
           id="g3279">
          <g
             id="g3281" />
          <g
             mask="url(#mask3293)"
             id="g3305">
            <g
               id="g3307">
              <path
                 id="path3315"
                 style="fill:url(#linearGradient3309);stroke:none"
                 d="m 401.305,453.326 c 0,-10.8 6.48,-17.159 14.338,-17.159 l 0,0 c 7.862,0 14.041,5.939 14.041,15.359 l 0,0 0,2.28 -23.458,0 c 0.119,9.119 4.019,12.24 10.497,12.24 l 0,0 c 4.801,0 8.581,-1.08 11.641,-2.821 l 0,0 0,4.981 c -3,1.319 -7.199,2.34 -11.759,2.34 l 0,0 c -9.061,0 -15.3,-5.34 -15.3,-17.22 m 5.22,-3.3 18.419,0 c -0.301,-4.619 -4.38,-9.48 -9.301,-9.48 l 0,0 c -5.039,0 -8.218,4.26 -9.118,9.48"
                 inkscape:connector-curvature="0" />
            </g>
          </g>
        </g>
      </g>
    </g>
    <g
       transform="matrix(1.25,0,0,-1.25,4.7424112,1106.4075)"
       id="g3317">
      <g
         clip-path="url(#clipPath3321)"
         id="g3319">
        <g
           transform="translate(235.3491,495.3232)"
           id="g3325">
          <path
             id="path3327"
             style="fill:#373535;fill-opacity:1;fill-rule:nonzero;stroke:none"
             d="m 0,0 0,-24.9 -4.98,0 0,33.359 4.32,0 0.599,-3.84 c 2.879,2.76 6.78,4.5 10.559,4.5 4.861,0 7.92,-1.92 9.721,-5.099 2.879,3.058 7.08,5.099 11.099,5.099 9.059,0 11.879,-6.66 11.879,-15.779 l 0,-18.24 -4.98,0 0,18.3 c 0,6.719 -2.52,11.28 -7.02,11.28 -3.718,0 -7.199,-1.5 -9.658,-3.901 0.6,-2.16 0.84,-4.679 0.84,-7.439 l 0,-18.24 -4.981,0 0,18.3 c 0,6.719 -2.519,11.28 -7.019,11.28 C 6.299,4.68 2.459,2.818 0,0"
             inkscape:connector-curvature="0" />
        </g>
        <g
           transform="translate(305.7866,478.3428)"
           id="g3329">
          <path
             id="path3331"
             style="fill:#373535;fill-opacity:1;fill-rule:nonzero;stroke:none"
             d="m 0,0 c -0.119,2.1 -0.18,4.561 -0.18,6.9 -1.859,0.061 -5.218,0.061 -8.759,-0.06 -6,-0.18 -7.739,-3.539 -7.739,-6.059 0,-3.781 2.879,-4.98 7.498,-4.98 2.881,0 6.42,1.799 9.18,4.199 M 7.26,-5.1 4.141,-8.459 C 2.34,-7.5 1.201,-5.639 0.541,-3.898 -1.92,-6.24 -5.76,-8.34 -9.418,-8.34 c -7.08,0 -12.121,2.76 -12.121,8.641 0,5.279 3.961,10.08 12.42,10.26 2.519,0.058 6.541,0 9,-0.122 0,2.1 0.06,3.721 0.06,3.961 -0.121,4.68 -2.88,7.08 -5.939,7.08 -4.381,0 -9.18,-1.621 -12.781,-3.96 l 0,4.919 c 3.601,2.04 7.98,3.6 12.84,3.6 6.06,0 10.56,-4.08 10.56,-11.879 l 0,-13.32 c 0,-2.819 1.08,-4.799 2.639,-5.94"
             inkscape:connector-curvature="0" />
        </g>
        <g
           transform="translate(339.3857,493.2217)"
           id="g3333">
          <path
             id="path3335"
             style="fill:#373535;fill-opacity:1;fill-rule:nonzero;stroke:none"
             d="m 0,0 c 0,3.602 -2.52,7.201 -8.039,7.201 -5.521,0 -7.98,-3.599 -7.98,-7.201 0,-3.719 2.58,-7.199 7.98,-7.199 C -2.52,-7.199 0,-3.719 0,0 m 1.877,-22.902 c -0.906,0.748 -2.166,1.216 -3.617,1.363 -3.301,0.361 -8.099,0.48 -11.4,0.842 -0.238,0 -0.479,0 -0.719,0.058 -1.223,-0.732 -2.195,-1.523 -2.92,-2.263 l -4.691,0 c 0.887,1.367 2.219,2.595 3.951,3.523 -1.92,1.26 -3.299,3 -3.299,5.641 0,2.34 1.918,4.08 3.838,5.459 -2.338,2.099 -3.418,5.041 -3.418,8.279 0,4.92 3.6,11.16 12.359,11.16 2.639,0 4.859,-0.599 6.6,-1.5 0.599,1.68 1.919,4.259 4.498,4.259 C 6,13.919 8.818,12.9 8.818,12.9 l 0,-3.539 c 0,0 -4.078,1.2 -5.459,0.78 C 2.58,9.9 1.859,8.641 1.379,7.561 3.48,5.34 4.439,2.521 4.439,0 c 0,-5.879 -3.66,-11.039 -12.478,-11.039 -2.341,0 -4.261,0.361 -5.88,0.961 -1.5,-1.02 -2.7,-1.861 -2.7,-3.301 0,-1.68 1.86,-2.939 3.78,-3.24 3.179,-0.479 8.339,-0.479 12.359,-0.959 3.072,-0.373 6.466,-2.039 7.835,-5.324 l -5.478,0 z"
             inkscape:connector-curvature="0" />
        </g>
        <path
           id="path3337"
           style="fill:#373535;fill-opacity:1;fill-rule:nonzero;stroke:none"
           d="m 354.146,503.782 4.98,0 0,-33.359 -4.98,0 0,33.359 z m -0.241,7.439 0,4.981 5.401,0 0,-5.041 -5.28,0 -0.121,0.06 z"
           inkscape:connector-curvature="0" />
        <g
           transform="translate(372.8662,499.9424)"
           id="g3339">
          <path
             id="path3341"
             style="fill:#373535;fill-opacity:1;fill-rule:nonzero;stroke:none"
             d="m 0,0 c 2.879,2.76 6.779,4.5 10.559,4.5 9.06,0 11.878,-6.66 11.878,-15.779 l 0,-18.241 -4.978,0 0,18.301 c 0,6.719 -2.52,11.28 -7.02,11.28 -4.08,0 -7.919,-1.862 -10.38,-4.68 l 0,-24.901 -4.979,0 0,33.36 4.318,0 L 0,0 z"
             inkscape:connector-curvature="0" />
        </g>
        <g
           transform="translate(406.5244,490.5225)"
           id="g3343">
          <path
             id="path3345"
             style="fill:#373535;fill-opacity:1;fill-rule:nonzero;stroke:none"
             d="M 0,0 18.42,0 C 18.119,4.619 14.039,9.48 9.119,9.48 4.08,9.48 0.9,5.221 0,0 m -0.299,-3.779 c 0.119,-9.119 4.02,-12.241 10.498,-12.241 4.801,0 8.58,1.081 11.641,2.821 l 0,-4.981 c -3,-1.318 -7.199,-2.34 -11.76,-2.34 -9.06,0 -15.299,5.34 -15.299,17.221 0,10.799 6.479,17.158 14.338,17.158 7.861,0 14.041,-5.939 14.041,-15.359 l 0,-2.279 -23.459,0 z"
             inkscape:connector-curvature="0" />
        </g>
        <path
           id="path3347"
           style="fill:#373535;fill-opacity:1;fill-rule:nonzero;stroke:none"
           d="m 216.57,515.842 5.1,0 0,-45.216 -5.1,0 0,45.216 z"
           inkscape:connector-curvature="0" />
        <g
           transform="translate(356.6045,491.1416)"
           id="g3349">
          <path
             id="path3351"
             style="fill:#ffffff;fill-opacity:1;fill-rule:evenodd;stroke:none"
             d="m 0,0 c -11.621,0 -20.449,13.906 -20.818,14.498 l -0.994,1.589 0.994,1.59 c 0.369,0.592 9.197,14.498 20.818,14.498 11.623,0 20.449,-13.906 20.82,-14.498 l 0.994,-1.59 -0.994,-1.589 C 20.449,13.906 11.623,0 0,0"
             inkscape:connector-curvature="0" />
        </g>
        <g
           transform="translate(374.8799,507.229)"
           id="g3353">
          <path
             id="path3355"
             style="fill:#317abe;fill-opacity:1;fill-rule:evenodd;stroke:none"
             d="M 0,0 C 0,0 -8.182,-13.087 -18.275,-13.087 -28.367,-13.087 -36.551,0 -36.551,0 c 0,0 8.184,13.088 18.276,13.088 C -8.182,13.088 0,0 0,0"
             inkscape:connector-curvature="0" />
        </g>
        <g
           transform="translate(356.6045,496.2373)"
           id="g3357">
          <path
             id="path3359"
             style="fill:#ffffff;fill-opacity:1;fill-rule:nonzero;stroke:none"
             d="m 0,0 c -5.984,0 -10.855,4.869 -10.855,10.855 0,5.986 4.871,10.855 10.855,10.855 5.986,0 10.855,-4.869 10.855,-10.855 C 10.855,4.869 5.986,0 0,0"
             inkscape:connector-curvature="0" />
        </g>
        <g
           transform="translate(365.1865,507.0923)"
           id="g3361">
          <path
             id="path3363"
             style="fill:#373535;fill-opacity:1;fill-rule:nonzero;stroke:none"
             d="m 0,0 c 0,-4.74 -3.842,-8.582 -8.582,-8.582 -4.738,0 -8.582,3.842 -8.582,8.582 0,4.74 3.844,8.582 8.582,8.582 C -3.842,8.582 0,4.74 0,0"
             inkscape:connector-curvature="0" />
        </g>
        <g
           transform="translate(364.7998,511.311)"
           id="g3365">
          <path
             id="path3367"
             style="fill:#ffffff;fill-opacity:1;fill-rule:nonzero;stroke:none"
             d="m 0,0 c 0,-1.766 -1.43,-3.197 -3.193,-3.197 -1.766,0 -3.198,1.431 -3.198,3.197 0,1.764 1.432,3.195 3.198,3.195 C -1.43,3.195 0,1.764 0,0"
             inkscape:connector-curvature="0" />
        </g>
        <g
           transform="translate(317.2202,470.2295)"
           id="g3369">
          <path
             id="path3371"
             style="fill:none;stroke:#ffffff;stroke-width:0.25;stroke-linecap:butt;stroke-linejoin:miter;stroke-miterlimit:10;stroke-opacity:1;stroke-dasharray:none"
             d="M 0,0 30.14,0"
             inkscape:connector-curvature="0" />
        </g>
        <g
           transform="translate(236.6772,507.7778)"
           id="g3373">
          <path
             id="path3375"
             style="fill:#373535;fill-opacity:1;fill-rule:nonzero;stroke:none"
             d="m 0,0 c -0.396,-0.198 -1.186,-0.395 -2.197,-0.395 -2.346,0 -4.112,1.482 -4.112,4.208 0,2.606 1.766,4.371 4.346,4.371 1.035,0 1.692,-0.222 1.975,-0.371 l -0.26,-0.876 c -0.408,0.198 -0.986,0.345 -1.68,0.345 -1.949,0 -3.244,-1.247 -3.244,-3.431 0,-2.036 1.172,-3.346 3.195,-3.346 0.657,0 1.321,0.137 1.754,0.346 L 0,0 z"
             inkscape:connector-curvature="0" />
        </g>
        <g
           transform="translate(238.519,510.4829)"
           id="g3377">
          <path
             id="path3379"
             style="fill:#373535;fill-opacity:1;fill-rule:nonzero;stroke:none"
             d="m 0,0 c 0,-1.311 0.752,-2.298 1.814,-2.298 1.038,0 1.815,0.975 1.815,2.322 0,1.01 -0.506,2.295 -1.789,2.295 C 0.555,2.319 0,1.133 0,0 m 4.738,0.059 c 0,-2.209 -1.527,-3.17 -2.972,-3.17 -1.618,0 -2.864,1.184 -2.864,3.071 0,2.001 1.309,3.175 2.961,3.175 1.715,0 2.875,-1.248 2.875,-3.076"
             inkscape:connector-curvature="0" />
        </g>
        <g
           transform="translate(244.6323,511.8638)"
           id="g3381">
          <path
             id="path3383"
             style="fill:#373535;fill-opacity:1;fill-rule:nonzero;stroke:none"
             d="m 0,0 c 0,0.617 -0.014,1.123 -0.049,1.617 l 0.949,0 0.049,-0.963 0.037,0 c 0.334,0.568 0.889,1.1 1.877,1.1 0.815,0 1.432,-0.495 1.692,-1.198 l 0.025,0 c 0.184,0.332 0.418,0.591 0.666,0.775 0.358,0.273 0.752,0.423 1.32,0.423 0.791,0 1.963,-0.52 1.963,-2.593 l 0,-3.517 -1.062,0 0,3.382 C 7.467,0.173 7.047,0.864 6.17,0.864 5.555,0.864 5.072,0.406 4.887,-0.124 4.838,-0.272 4.801,-0.469 4.801,-0.667 l 0,-3.689 -1.061,0 0,3.578 C 3.74,0.173 3.318,0.864 2.492,0.864 1.814,0.864 1.32,0.322 1.148,-0.223 1.086,-0.383 1.061,-0.567 1.061,-0.753 l 0,-3.603 L 0,-4.356 0,0 z"
             inkscape:connector-curvature="0" />
        </g>
        <g
           transform="translate(256.0034,509.938)"
           id="g3385">
          <path
             id="path3387"
             style="fill:#373535;fill-opacity:1;fill-rule:nonzero;stroke:none"
             d="m 0,0 c 0,-0.159 0.027,-0.308 0.051,-0.444 0.199,-0.753 0.853,-1.271 1.629,-1.271 1.148,0 1.814,0.937 1.814,2.307 0,1.198 -0.629,2.221 -1.777,2.221 C 0.977,2.813 0.285,2.282 0.076,1.47 0.039,1.333 0,1.173 0,1.026 L 0,0 z m -1.07,1.592 c 0,0.765 -0.028,1.383 -0.051,1.951 l 0.975,0 0.048,-1.024 0.024,0 C 0.371,3.245 1.074,3.68 2.051,3.68 3.494,3.68 4.58,2.457 4.58,0.642 c 0,-2.148 -1.307,-3.208 -2.715,-3.208 -0.791,0 -1.48,0.344 -1.838,0.939 l -0.027,0 0,-3.248 -1.07,0 0,6.467 z"
             inkscape:connector-curvature="0" />
        </g>
        <g
           transform="translate(266.9565,509.1372)"
           id="g3389">
          <path
             id="path3391"
             style="fill:#373535;fill-opacity:1;fill-rule:nonzero;stroke:none"
             d="m 0,0 c 0,-0.618 0.014,-1.16 0.049,-1.63 l -0.961,0 -0.065,0.975 -0.023,0 c -0.283,-0.481 -0.914,-1.111 -1.975,-1.111 -0.937,0 -2.06,0.518 -2.06,2.618 l 0,3.492 1.084,0 0,-3.309 c 0,-1.135 0.346,-1.901 1.334,-1.901 0.728,0 1.234,0.507 1.433,0.989 0.061,0.159 0.098,0.357 0.098,0.556 l 0,3.665 L 0,4.344 0,0 z"
             inkscape:connector-curvature="0" />
        </g>
        <g
           transform="translate(270.0698,515.1958)"
           id="g3393">
          <path
             id="path3395"
             style="fill:#373535;fill-opacity:1;fill-rule:nonzero;stroke:none"
             d="m 0,0 0,-1.715 1.557,0 0,-0.829 -1.557,0 0,-3.221 c 0,-0.739 0.211,-1.16 0.816,-1.16 0.284,0 0.493,0.04 0.627,0.074 L 1.494,-7.664 C 1.285,-7.751 0.951,-7.812 0.531,-7.812 c -0.506,0 -0.914,0.161 -1.172,0.457 -0.308,0.322 -0.42,0.851 -0.42,1.554 l 0,3.257 -0.923,0 0,0.829 0.923,0 0,1.432 L 0,0 z"
             inkscape:connector-curvature="0" />
        </g>
        <g
           transform="translate(275.9976,510.5552)"
           id="g3397">
          <path
             id="path3399"
             style="fill:#373535;fill-opacity:1;fill-rule:nonzero;stroke:none"
             d="m 0,0 c -1.184,0.024 -2.529,-0.187 -2.529,-1.345 0,-0.703 0.466,-1.037 1.023,-1.037 0.777,0 1.272,0.494 1.444,0.999 C -0.025,-1.271 0,-1.148 0,-1.037 L 0,0 z m 0.16,-3.048 -0.086,0.752 -0.037,0 c -0.332,-0.469 -0.976,-0.888 -1.828,-0.888 -1.209,0 -1.826,0.852 -1.826,1.716 0,1.443 1.285,2.234 3.592,2.221 l 0,0.122 c 0,0.495 -0.135,1.384 -1.358,1.384 -0.554,0 -1.135,-0.172 -1.555,-0.445 L -3.186,2.53 c 0.495,0.324 1.209,0.533 1.963,0.533 1.828,0 2.272,-1.249 2.272,-2.446 l 0,-2.233 c 0,-0.52 0.025,-1.025 0.097,-1.432 l -0.986,0 z"
             inkscape:connector-curvature="0" />
        </g>
        <g
           transform="translate(283.062,507.728)"
           id="g3401">
          <path
             id="path3403"
             style="fill:#373535;fill-opacity:1;fill-rule:nonzero;stroke:none"
             d="m 0,0 c -0.285,-0.148 -0.914,-0.345 -1.717,-0.345 -1.803,0 -2.974,1.223 -2.974,3.05 0,1.837 1.257,3.171 3.209,3.171 0.642,0 1.209,-0.161 1.505,-0.31 L -0.223,4.729 c -0.259,0.148 -0.666,0.283 -1.259,0.283 -1.37,0 -2.112,-1.012 -2.112,-2.257 0,-1.385 0.889,-2.236 2.074,-2.236 0.618,0 1.024,0.161 1.333,0.294 L 0,0 z"
             inkscape:connector-curvature="0" />
        </g>
        <path
           id="path3405"
           style="fill:#373535;fill-opacity:1;fill-rule:nonzero;stroke:none"
           d="m 284.335,513.481 1.086,0 0,-5.974 -1.086,0 0,5.974 z m 1.209,1.678 c 0.012,-0.369 -0.259,-0.666 -0.691,-0.666 -0.381,0 -0.654,0.297 -0.654,0.666 0,0.383 0.285,0.679 0.679,0.679 0.407,0 0.666,-0.296 0.666,-0.679"
           inkscape:connector-curvature="0" />
        <g
           transform="translate(291.3335,516.061)"
           id="g3407">
          <path
             id="path3409"
             style="fill:#373535;fill-opacity:1;fill-rule:nonzero;stroke:none"
             d="m 0,0 -1.506,-1.765 -0.777,0 L -1.195,0 0,0 z m -3.441,-5.578 c 0,-1.311 0.752,-2.298 1.812,-2.298 1.037,0 1.815,0.975 1.815,2.322 0,1.01 -0.504,2.295 -1.79,2.295 -1.283,0 -1.837,-1.186 -1.837,-2.319 m 4.738,0.058 c 0,-2.209 -1.531,-3.169 -2.975,-3.169 -1.617,0 -2.863,1.184 -2.863,3.071 0,2.001 1.309,3.175 2.961,3.175 1.717,0 2.877,-1.248 2.877,-3.077"
             inkscape:connector-curvature="0" />
        </g>
        <g
           transform="translate(294.0054,511.8638)"
           id="g3411">
          <path
             id="path3413"
             style="fill:#373535;fill-opacity:1;fill-rule:nonzero;stroke:none"
             d="m 0,0 c 0,0.617 -0.014,1.123 -0.051,1.617 l 0.963,0 0.061,-0.989 0.025,0 c 0.297,0.568 0.986,1.126 1.975,1.126 0.826,0 2.109,-0.495 2.109,-2.545 l 0,-3.565 -1.086,0 0,3.442 C 3.996,0.05 3.639,0.853 2.615,0.853 1.898,0.853 1.344,0.345 1.158,-0.26 1.109,-0.395 1.084,-0.581 1.084,-0.766 l 0,-3.59 L 0,-4.356 0,0 z"
             inkscape:connector-curvature="0" />
        </g>
        <g
           transform="translate(304.896,507.5073)"
           id="g3415">
          <path
             id="path3417"
             style="fill:#373535;fill-opacity:1;fill-rule:nonzero;stroke:none"
             d="m 0,0 -2.715,8.317 1.158,0 1.297,-4.096 C 0.098,3.097 0.406,2.086 0.629,1.11 l 0.023,0 c 0.237,0.962 0.58,2.012 0.952,3.098 l 1.408,4.109 1.146,0 L 1.184,0 0,0 z"
             inkscape:connector-curvature="0" />
        </g>
        <path
           id="path3419"
           style="fill:#373535;fill-opacity:1;fill-rule:nonzero;stroke:none"
           d="m 309.724,513.481 1.086,0 0,-5.974 -1.086,0 0,5.974 z m 1.209,1.678 c 0.012,-0.369 -0.26,-0.666 -0.691,-0.666 -0.383,0 -0.655,0.297 -0.655,0.666 0,0.383 0.286,0.679 0.68,0.679 0.406,0 0.666,-0.296 0.666,-0.679"
           inkscape:connector-curvature="0" />
        <g
           transform="translate(312.4663,508.6177)"
           id="g3421">
          <path
             id="path3423"
             style="fill:#373535;fill-opacity:1;fill-rule:nonzero;stroke:none"
             d="m 0,0 c 0.32,-0.21 0.889,-0.433 1.432,-0.433 0.789,0 1.16,0.397 1.16,0.888 0,0.521 -0.309,0.804 -1.112,1.1 C 0.406,1.937 -0.1,2.529 -0.1,3.246 -0.1,4.209 0.68,5 1.961,5 2.566,5 3.098,4.825 3.43,4.629 L 3.158,3.839 C 2.924,3.987 2.492,4.185 1.936,4.185 1.297,4.185 0.937,3.813 0.937,3.371 0.937,2.876 1.297,2.653 2.072,2.358 3.109,1.962 3.641,1.444 3.641,0.555 c 0,-1.048 -0.815,-1.789 -2.235,-1.789 -0.654,0 -1.258,0.161 -1.677,0.407 L 0,0 z"
             inkscape:connector-curvature="0" />
        </g>
        <g
           transform="translate(322.5015,509.1372)"
           id="g3425">
          <path
             id="path3427"
             style="fill:#373535;fill-opacity:1;fill-rule:nonzero;stroke:none"
             d="m 0,0 c 0,-0.618 0.014,-1.16 0.051,-1.63 l -0.963,0 -0.061,0.975 -0.025,0 c -0.285,-0.481 -0.912,-1.111 -1.975,-1.111 -0.939,0 -2.06,0.518 -2.06,2.618 l 0,3.492 1.084,0 0,-3.309 c 0,-1.135 0.345,-1.901 1.334,-1.901 0.728,0 1.234,0.507 1.431,0.989 0.063,0.159 0.1,0.357 0.1,0.556 l 0,3.665 L 0,4.344 0,0 z"
             inkscape:connector-curvature="0" />
        </g>
        <g
           transform="translate(327.4546,510.5552)"
           id="g3429">
          <path
             id="path3431"
             style="fill:#373535;fill-opacity:1;fill-rule:nonzero;stroke:none"
             d="m 0,0 c -1.186,0.024 -2.527,-0.187 -2.527,-1.345 0,-0.703 0.466,-1.037 1.023,-1.037 0.777,0 1.27,0.494 1.443,0.999 C -0.025,-1.271 0,-1.148 0,-1.037 L 0,0 z m 0.16,-3.048 -0.086,0.752 -0.037,0 c -0.332,-0.469 -0.974,-0.888 -1.824,-0.888 -1.211,0 -1.826,0.852 -1.826,1.716 0,1.443 1.283,2.234 3.588,2.221 l 0,0.122 c 0,0.495 -0.135,1.384 -1.356,1.384 -0.556,0 -1.135,-0.172 -1.555,-0.445 L -3.184,2.53 c 0.495,0.324 1.209,0.533 1.961,0.533 1.828,0 2.272,-1.249 2.272,-2.446 l 0,-2.233 c 0,-0.52 0.025,-1.025 0.099,-1.432 l -0.988,0 z"
             inkscape:connector-curvature="0" />
        </g>
        <path
           id="path3433"
           style="fill:#373535;fill-opacity:1;fill-rule:nonzero;stroke:none"
           d="m 330.261,516.27 1.086,0 0,-8.763 -1.086,0 0,8.763 z"
           inkscape:connector-curvature="0" />
        <g
           transform="translate(253.5737,461.4189)"
           id="g3435">
          <path
             id="path3437"
             style="fill:#373535;fill-opacity:1;fill-rule:nonzero;stroke:none"
             d="m 0,0 0,-3.828 c 0,-1.449 0.643,-2.063 1.506,-2.063 0.959,0 1.574,0.633 1.574,2.063 l 0,3.828 0.844,0 0,-3.77 c 0,-1.988 -1.045,-2.802 -2.447,-2.802 -1.323,0 -2.321,0.758 -2.321,2.763 L -0.844,0 0,0 z"
             inkscape:connector-curvature="0" />
        </g>
        <g
           transform="translate(258.9214,458.3389)"
           id="g3439">
          <path
             id="path3441"
             style="fill:#373535;fill-opacity:1;fill-rule:nonzero;stroke:none"
             d="m 0,0 c 0,0.48 -0.01,0.873 -0.039,1.258 l 0.75,0 0.047,-0.768 0.019,0 c 0.229,0.442 0.768,0.873 1.536,0.873 0.642,0 1.64,-0.383 1.64,-1.976 l 0,-2.774 -0.844,0 0,2.678 C 3.109,0.039 2.83,0.662 2.035,0.662 1.477,0.662 1.047,0.27 0.902,-0.201 0.863,-0.307 0.844,-0.449 0.844,-0.594 l 0,-2.793 L 0,-3.387 0,0 z"
             inkscape:connector-curvature="0" />
        </g>
        <path
           id="path3443"
           style="fill:#373535;fill-opacity:1;fill-rule:nonzero;stroke:none"
           d="m 264.25,459.597 0.844,0 0,-4.645 -0.844,0 0,4.645 z m 0.939,1.304 c 0.01,-0.289 -0.201,-0.517 -0.537,-0.517 -0.297,0 -0.508,0.228 -0.508,0.517 0,0.297 0.221,0.528 0.527,0.528 0.317,0 0.518,-0.231 0.518,-0.528"
           inkscape:connector-curvature="0" />
        <g
           transform="translate(266.8218,459.5967)"
           id="g3445">
          <path
             id="path3447"
             style="fill:#373535;fill-opacity:1;fill-rule:nonzero;stroke:none"
             d="m 0,0 0.912,-2.609 c 0.152,-0.424 0.277,-0.807 0.373,-1.19 l 0.029,0 c 0.106,0.383 0.241,0.766 0.395,1.19 L 2.609,0 3.492,0 1.67,-4.645 0.863,-4.645 -0.902,0 0,0 z"
             inkscape:connector-curvature="0" />
        </g>
        <g
           transform="translate(273.9624,457.7256)"
           id="g3449">
          <path
             id="path3451"
             style="fill:#373535;fill-opacity:1;fill-rule:nonzero;stroke:none"
             d="M 0,0 C 0.01,0.537 -0.221,1.371 -1.17,1.371 -2.025,1.371 -2.398,0.586 -2.465,0 L 0,0 z m -2.475,-0.605 c 0.02,-1.141 0.748,-1.612 1.592,-1.612 0.606,0 0.969,0.106 1.287,0.24 L 0.549,-2.58 c -0.299,-0.137 -0.807,-0.289 -1.545,-0.289 -1.43,0 -2.285,0.941 -2.285,2.342 0,1.4 0.826,2.504 2.177,2.504 1.518,0 1.92,-1.334 1.92,-2.188 0,-0.174 -0.019,-0.307 -0.027,-0.394 l -3.264,0 z"
             inkscape:connector-curvature="0" />
        </g>
        <g
           transform="translate(275.8276,458.1475)"
           id="g3453">
          <path
             id="path3455"
             style="fill:#373535;fill-opacity:1;fill-rule:nonzero;stroke:none"
             d="m 0,0 c 0,0.547 -0.01,1.018 -0.039,1.449 l 0.738,0 0.03,-0.912 0.039,0 c 0.211,0.623 0.718,1.018 1.285,1.018 0.095,0 0.162,-0.01 0.24,-0.03 l 0,-0.796 C 2.207,0.748 2.119,0.758 2.004,0.758 1.41,0.758 0.988,0.307 0.873,-0.326 0.854,-0.441 0.834,-0.576 0.834,-0.721 l 0,-2.474 L 0,-3.195 0,0 z"
             inkscape:connector-curvature="0" />
        </g>
        <g
           transform="translate(278.8511,455.8154)"
           id="g3457">
          <path
             id="path3459"
             style="fill:#373535;fill-opacity:1;fill-rule:nonzero;stroke:none"
             d="m 0,0 c 0.25,-0.162 0.689,-0.336 1.113,-0.336 0.614,0 0.903,0.307 0.903,0.691 0,0.405 -0.241,0.624 -0.864,0.854 -0.836,0.299 -1.228,0.758 -1.228,1.314 0,0.748 0.603,1.364 1.601,1.364 0.471,0 0.883,-0.135 1.143,-0.287 L 2.457,2.984 C 2.275,3.1 1.937,3.254 1.506,3.254 1.008,3.254 0.73,2.967 0.73,2.619 0.73,2.236 1.008,2.063 1.611,1.834 2.418,1.525 2.83,1.123 2.83,0.434 c 0,-0.817 -0.633,-1.393 -1.736,-1.393 -0.508,0 -0.979,0.125 -1.305,0.316 L 0,0 z"
             inkscape:connector-curvature="0" />
        </g>
        <path
           id="path3461"
           style="fill:#373535;fill-opacity:1;fill-rule:nonzero;stroke:none"
           d="m 282.769,459.597 0.844,0 0,-4.645 -0.844,0 0,4.645 z m 0.939,1.304 c 0.01,-0.289 -0.201,-0.517 -0.537,-0.517 -0.298,0 -0.509,0.228 -0.509,0.517 0,0.297 0.22,0.528 0.529,0.528 0.316,0 0.517,-0.231 0.517,-0.528"
           inkscape:connector-curvature="0" />
        <g
           transform="translate(288.1812,457.7061)"
           id="g3463">
          <path
             id="path3465"
             style="fill:#373535;fill-opacity:1;fill-rule:nonzero;stroke:none"
             d="m 0,0 c 0,0.105 -0.01,0.25 -0.039,0.355 -0.125,0.538 -0.584,0.979 -1.219,0.979 -0.873,0 -1.39,-0.768 -1.39,-1.795 0,-0.939 0.46,-1.717 1.373,-1.717 0.564,0 1.082,0.373 1.236,1.008 C -0.01,-1.057 0,-0.941 0,-0.805 L 0,0 z m 0.844,4.059 0,-5.614 c 0,-0.412 0.01,-0.883 0.039,-1.199 l -0.758,0 -0.039,0.807 -0.02,0 c -0.259,-0.52 -0.826,-0.912 -1.582,-0.912 -1.123,0 -1.986,0.951 -1.986,2.361 -0.01,1.545 0.949,2.494 2.082,2.494 0.709,0 1.19,-0.336 1.4,-0.709 l 0.02,0 0,2.772 0.844,0 z"
             inkscape:connector-curvature="0" />
        </g>
        <g
           transform="translate(292.8765,457.3232)"
           id="g3467">
          <path
             id="path3469"
             style="fill:#373535;fill-opacity:1;fill-rule:nonzero;stroke:none"
             d="m 0,0 c -0.922,0.018 -1.967,-0.145 -1.967,-1.047 0,-0.547 0.363,-0.805 0.795,-0.805 0.606,0 0.988,0.383 1.123,0.778 C -0.02,-0.988 0,-0.893 0,-0.807 L 0,0 z m 0.125,-2.371 -0.068,0.586 -0.028,0 C -0.23,-2.15 -0.73,-2.477 -1.393,-2.477 c -0.939,0 -1.42,0.663 -1.42,1.334 0,1.123 0.999,1.737 2.793,1.727 l 0,0.098 c 0,0.382 -0.105,1.074 -1.056,1.074 -0.432,0 -0.883,-0.135 -1.209,-0.346 l -0.192,0.557 c 0.385,0.248 0.942,0.412 1.526,0.412 1.42,0 1.765,-0.969 1.765,-1.9 l 0,-1.737 c 0,-0.404 0.02,-0.797 0.077,-1.113 l -0.766,0 z"
             inkscape:connector-curvature="0" />
        </g>
        <g
           transform="translate(298.2222,457.7061)"
           id="g3471">
          <path
             id="path3473"
             style="fill:#373535;fill-opacity:1;fill-rule:nonzero;stroke:none"
             d="m 0,0 c 0,0.105 -0.01,0.25 -0.037,0.355 -0.125,0.538 -0.586,0.979 -1.219,0.979 -0.873,0 -1.39,-0.768 -1.39,-1.795 0,-0.939 0.458,-1.717 1.371,-1.717 0.564,0 1.084,0.373 1.238,1.008 C -0.01,-1.057 0,-0.941 0,-0.805 L 0,0 z m 0.844,4.059 0,-5.614 c 0,-0.412 0.011,-0.883 0.039,-1.199 l -0.758,0 -0.039,0.807 -0.018,0 c -0.259,-0.52 -0.826,-0.912 -1.584,-0.912 -1.121,0 -1.986,0.951 -1.986,2.361 -0.01,1.545 0.951,2.494 2.084,2.494 0.707,0 1.188,-0.336 1.4,-0.709 l 0.018,0 0,2.772 0.844,0 z"
             inkscape:connector-curvature="0" />
        </g>
        <g
           transform="translate(305.6733,457.7061)"
           id="g3475">
          <path
             id="path3477"
             style="fill:#373535;fill-opacity:1;fill-rule:nonzero;stroke:none"
             d="m 0,0 c 0,0.105 -0.01,0.25 -0.039,0.355 -0.125,0.538 -0.586,0.979 -1.219,0.979 -0.873,0 -1.39,-0.768 -1.39,-1.795 0,-0.939 0.46,-1.717 1.371,-1.717 0.566,0 1.086,0.373 1.238,1.008 C -0.01,-1.057 0,-0.941 0,-0.805 L 0,0 z m 0.844,4.059 0,-5.614 c 0,-0.412 0.01,-0.883 0.039,-1.199 l -0.758,0 -0.039,0.807 -0.02,0 c -0.257,-0.52 -0.824,-0.912 -1.584,-0.912 -1.121,0 -1.984,0.951 -1.984,2.361 -0.012,1.545 0.949,2.494 2.082,2.494 0.709,0 1.19,-0.336 1.4,-0.709 l 0.02,0 0,2.772 0.844,0 z"
             inkscape:connector-curvature="0" />
        </g>
        <g
           transform="translate(310.8667,457.7256)"
           id="g3479">
          <path
             id="path3481"
             style="fill:#373535;fill-opacity:1;fill-rule:nonzero;stroke:none"
             d="M 0,0 C 0.01,0.537 -0.219,1.371 -1.17,1.371 -2.023,1.371 -2.398,0.586 -2.465,0 L 0,0 z m -2.475,-0.605 c 0.02,-1.141 0.748,-1.612 1.594,-1.612 0.604,0 0.967,0.106 1.285,0.24 L 0.547,-2.58 c -0.297,-0.137 -0.805,-0.289 -1.543,-0.289 -1.43,0 -2.285,0.941 -2.285,2.342 0,1.4 0.826,2.504 2.177,2.504 1.518,0 1.92,-1.334 1.92,-2.188 0,-0.174 -0.019,-0.307 -0.029,-0.394 l -3.262,0 z"
             inkscape:connector-curvature="0" />
        </g>
        <path
           id="path3483"
           style="fill:#373535;fill-opacity:1;fill-rule:nonzero;stroke:none"
           d="m 314.767,461.765 0.844,0 0,-6.812 -0.844,0 0,6.812 z"
           inkscape:connector-curvature="0" />
        <g
           transform="translate(317.5503,457.2646)"
           id="g3485">
          <path
             id="path3487"
             style="fill:#373535;fill-opacity:1;fill-rule:nonzero;stroke:none"
             d="m 0,0 c 0,-1.016 0.584,-1.785 1.41,-1.785 0.807,0 1.41,0.758 1.41,1.805 0,0.787 -0.392,1.785 -1.39,1.785 C 0.432,1.805 0,0.883 0,0 m 3.684,0.049 c 0,-1.719 -1.19,-2.467 -2.313,-2.467 -1.256,0 -2.225,0.922 -2.225,2.389 0,1.554 1.016,2.467 2.301,2.467 1.336,0 2.237,-0.969 2.237,-2.389"
             inkscape:connector-curvature="0" />
        </g>
        <g
           transform="translate(322.187,455.8154)"
           id="g3489">
          <path
             id="path3491"
             style="fill:#373535;fill-opacity:1;fill-rule:nonzero;stroke:none"
             d="m 0,0 c 0.248,-0.162 0.689,-0.336 1.111,-0.336 0.616,0 0.905,0.307 0.905,0.691 0,0.405 -0.241,0.624 -0.866,0.854 -0.834,0.299 -1.228,0.758 -1.228,1.314 0,0.748 0.605,1.364 1.603,1.364 0.471,0 0.883,-0.135 1.141,-0.287 L 2.455,2.984 C 2.273,3.1 1.937,3.254 1.506,3.254 1.008,3.254 0.729,2.967 0.729,2.619 0.729,2.236 1.008,2.063 1.611,1.834 2.418,1.525 2.83,1.123 2.83,0.434 c 0,-0.817 -0.633,-1.393 -1.736,-1.393 -0.508,0 -0.979,0.125 -1.305,0.316 L 0,0 z"
             inkscape:connector-curvature="0" />
        </g>
        <g
           transform="translate(331.3335,457.6396)"
           id="g3493">
          <path
             id="path3495"
             style="fill:#373535;fill-opacity:1;fill-rule:nonzero;stroke:none"
             d="m 0,0 -0.633,1.861 c -0.144,0.422 -0.24,0.807 -0.336,1.18 l -0.019,0 C -1.084,2.658 -1.189,2.264 -1.314,1.869 L -1.947,0 0,0 z m -2.121,-0.652 -0.67,-2.036 -0.863,0 2.197,6.467 1.006,0 2.207,-6.467 -0.893,0 -0.691,2.036 -2.293,0 z"
             inkscape:connector-curvature="0" />
        </g>
        <g
           transform="translate(333.9858,458.3389)"
           id="g3497">
          <path
             id="path3499"
             style="fill:#373535;fill-opacity:1;fill-rule:nonzero;stroke:none"
             d="m 0,0 c 0,0.48 -0.01,0.873 -0.039,1.258 l 0.748,0 0.049,-0.768 0.019,0 c 0.231,0.442 0.767,0.873 1.535,0.873 0.643,0 1.641,-0.383 1.641,-1.976 l 0,-2.774 -0.846,0 0,2.678 C 3.107,0.039 2.83,0.662 2.033,0.662 1.476,0.662 1.045,0.27 0.9,-0.201 0.863,-0.307 0.844,-0.449 0.844,-0.594 l 0,-2.793 L 0,-3.387 0,0 z"
             inkscape:connector-curvature="0" />
        </g>
        <g
           transform="translate(342.4795,457.7061)"
           id="g3501">
          <path
             id="path3503"
             style="fill:#373535;fill-opacity:1;fill-rule:nonzero;stroke:none"
             d="m 0,0 c 0,0.105 -0.01,0.25 -0.039,0.355 -0.125,0.538 -0.586,0.979 -1.219,0.979 -0.873,0 -1.39,-0.768 -1.39,-1.795 0,-0.939 0.46,-1.717 1.371,-1.717 0.566,0 1.086,0.373 1.238,1.008 C -0.01,-1.057 0,-0.941 0,-0.805 L 0,0 z m 0.844,4.059 0,-5.614 c 0,-0.412 0.01,-0.883 0.039,-1.199 l -0.76,0 -0.037,0.807 -0.02,0 c -0.257,-0.52 -0.824,-0.912 -1.584,-0.912 -1.121,0 -1.984,0.951 -1.984,2.361 -0.01,1.545 0.949,2.494 2.082,2.494 0.709,0 1.19,-0.336 1.4,-0.709 l 0.02,0 0,2.772 0.844,0 z"
             inkscape:connector-curvature="0" />
        </g>
        <g
           transform="translate(347.6729,457.7256)"
           id="g3505">
          <path
             id="path3507"
             style="fill:#373535;fill-opacity:1;fill-rule:nonzero;stroke:none"
             d="M 0,0 C 0.01,0.537 -0.221,1.371 -1.172,1.371 -2.023,1.371 -2.398,0.586 -2.467,0 L 0,0 z m -2.475,-0.605 c 0.018,-1.141 0.748,-1.612 1.592,-1.612 0.604,0 0.969,0.106 1.285,0.24 L 0.547,-2.58 C 0.25,-2.717 -0.26,-2.869 -0.998,-2.869 c -1.43,0 -2.283,0.941 -2.283,2.342 0,1.4 0.824,2.504 2.177,2.504 1.516,0 1.92,-1.334 1.92,-2.188 0,-0.174 -0.019,-0.307 -0.029,-0.394 l -3.262,0 z"
             inkscape:connector-curvature="0" />
        </g>
        <g
           transform="translate(349.4209,455.8154)"
           id="g3509">
          <path
             id="path3511"
             style="fill:#373535;fill-opacity:1;fill-rule:nonzero;stroke:none"
             d="m 0,0 c 0.25,-0.162 0.691,-0.336 1.113,-0.336 0.614,0 0.903,0.307 0.903,0.691 0,0.405 -0.241,0.624 -0.864,0.854 -0.836,0.299 -1.228,0.758 -1.228,1.314 0,0.748 0.603,1.364 1.603,1.364 0.469,0 0.881,-0.135 1.141,-0.287 L 2.457,2.984 C 2.275,3.1 1.939,3.254 1.508,3.254 1.008,3.254 0.73,2.967 0.73,2.619 0.73,2.236 1.008,2.063 1.613,1.834 2.418,1.525 2.83,1.123 2.83,0.434 c 0,-0.817 -0.633,-1.393 -1.736,-1.393 -0.508,0 -0.979,0.125 -1.305,0.316 L 0,0 z"
             inkscape:connector-curvature="0" />
        </g>
        <path
           id="path3513"
           style="fill:#373535;fill-opacity:1;fill-rule:nonzero;stroke:none"
           d="m 355.819,452.554 -0.643,0 0,9.596 0.643,0 0,-9.596 z"
           inkscape:connector-curvature="0" />
        <g
           transform="translate(360.2451,455.585)"
           id="g3515">
          <path
             id="path3517"
             style="fill:#373535;fill-opacity:1;fill-rule:nonzero;stroke:none"
             d="m 0,0 c 0.164,-0.027 0.402,-0.037 0.701,-0.037 0.863,0 1.66,0.316 1.66,1.256 0,0.883 -0.759,1.248 -1.67,1.248 L 0,2.467 0,0 z m 0,3.1 0.758,0 C 1.641,3.1 2.16,3.561 2.16,4.184 2.16,4.941 1.584,5.238 0.738,5.238 0.355,5.238 0.135,5.211 0,5.182 L 0,3.1 z m -0.834,2.648 c 0.365,0.076 0.939,0.135 1.525,0.135 0.834,0 1.373,-0.145 1.776,-0.471 C 2.803,5.164 3.004,4.779 3.004,4.271 3.004,3.646 2.59,3.1 1.91,2.85 l 0,-0.018 C 2.523,2.678 3.242,2.168 3.242,1.209 3.242,0.652 3.023,0.23 2.697,-0.086 2.246,-0.498 1.516,-0.689 0.461,-0.689 c -0.576,0 -1.018,0.039 -1.295,0.076 l 0,6.361 z"
             inkscape:connector-curvature="0" />
        </g>
        <g
           transform="translate(365.1416,457.2646)"
           id="g3519">
          <path
             id="path3521"
             style="fill:#373535;fill-opacity:1;fill-rule:nonzero;stroke:none"
             d="m 0,0 c 0,-1.016 0.586,-1.785 1.41,-1.785 0.807,0 1.412,0.758 1.412,1.805 0,0.787 -0.394,1.785 -1.392,1.785 C 0.432,1.805 0,0.883 0,0 m 3.686,0.049 c 0,-1.719 -1.19,-2.467 -2.315,-2.467 -1.256,0 -2.225,0.922 -2.225,2.389 0,1.554 1.018,2.467 2.303,2.467 1.334,0 2.237,-0.969 2.237,-2.389"
             inkscape:connector-curvature="0" />
        </g>
        <g
           transform="translate(373.0225,457.7646)"
           id="g3523">
          <path
             id="path3525"
             style="fill:#373535;fill-opacity:1;fill-rule:nonzero;stroke:none"
             d="m 0,0 c 0,0.143 -0.01,0.268 -0.049,0.383 -0.152,0.49 -0.564,0.892 -1.18,0.892 -0.804,0 -1.38,-0.681 -1.38,-1.755 0,-0.913 0.461,-1.67 1.371,-1.67 0.519,0 0.988,0.326 1.172,0.863 C -0.02,-1.143 0,-0.979 0,-0.836 L 0,0 z M 0.873,1.832 C 0.854,1.496 0.834,1.121 0.834,0.555 l 0,-2.696 c 0,-1.064 -0.211,-1.718 -0.66,-2.121 -0.451,-0.422 -1.104,-0.556 -1.69,-0.556 -0.556,0 -1.17,0.134 -1.545,0.384 l 0.211,0.643 c 0.307,-0.191 0.787,-0.365 1.362,-0.365 0.865,0 1.498,0.451 1.498,1.623 l 0,0.517 -0.02,0 c -0.258,-0.431 -0.758,-0.777 -1.478,-0.777 -1.151,0 -1.975,0.979 -1.975,2.264 0,1.574 1.025,2.466 2.092,2.466 0.805,0 1.246,-0.421 1.447,-0.806 l 0.02,0 0.039,0.701 0.738,0 z"
             inkscape:connector-curvature="0" />
        </g>
        <g
           transform="translate(375.7803,457.2646)"
           id="g3527">
          <path
             id="path3529"
             style="fill:#373535;fill-opacity:1;fill-rule:nonzero;stroke:none"
             d="m 0,0 c 0,-1.016 0.584,-1.785 1.408,-1.785 0.807,0 1.412,0.758 1.412,1.805 0,0.787 -0.394,1.785 -1.39,1.785 C 0.43,1.805 0,0.883 0,0 m 3.684,0.049 c 0,-1.719 -1.19,-2.467 -2.313,-2.467 -1.256,0 -2.226,0.922 -2.226,2.389 0,1.554 1.017,2.467 2.302,2.467 1.334,0 2.237,-0.969 2.237,-2.389"
             inkscape:connector-curvature="0" />
        </g>
        <g
           transform="translate(381.5498,460.9307)"
           id="g3531">
          <path
             id="path3533"
             style="fill:#373535;fill-opacity:1;fill-rule:nonzero;stroke:none"
             d="m 0,0 0,-1.334 1.207,0 0,-0.643 -1.207,0 0,-2.503 c 0,-0.577 0.162,-0.903 0.633,-0.903 0.221,0 0.383,0.028 0.488,0.057 L 1.16,-5.959 C 0.996,-6.025 0.738,-6.074 0.412,-6.074 c -0.394,0 -0.711,0.125 -0.912,0.355 -0.24,0.248 -0.326,0.662 -0.326,1.209 l 0,2.533 -0.721,0 0,0.643 0.721,0 0,1.113 L 0,0 z"
             inkscape:connector-curvature="0" />
        </g>
        <g
           transform="translate(386.5771,461.6006)"
           id="g3535">
          <path
             id="path3537"
             style="fill:#373535;fill-opacity:1;fill-rule:nonzero;stroke:none"
             d="m 0,0 -1.17,-1.371 -0.603,0 L -0.93,0 0,0 z m -0.422,-4.277 c -0.92,0.017 -1.967,-0.145 -1.967,-1.047 0,-0.547 0.366,-0.805 0.797,-0.805 0.604,0 0.988,0.383 1.123,0.777 0.028,0.086 0.047,0.182 0.047,0.268 l 0,0.807 z m 0.125,-2.371 -0.066,0.586 -0.03,0 c -0.259,-0.366 -0.757,-0.692 -1.419,-0.692 -0.94,0 -1.42,0.662 -1.42,1.334 0,1.123 0.998,1.736 2.791,1.727 l 0,0.097 c 0,0.383 -0.104,1.075 -1.055,1.075 -0.432,0 -0.883,-0.135 -1.209,-0.346 l -0.191,0.556 c 0.382,0.248 0.939,0.413 1.525,0.413 1.42,0 1.766,-0.969 1.766,-1.901 l 0,-1.736 c 0,-0.404 0.019,-0.797 0.076,-1.113 l -0.768,0 z"
             inkscape:connector-curvature="0" />
        </g>
        <g
           transform="translate(387.79,453.7725)"
           id="g3539">
          <path
             id="path3541"
             style="fill:#373535;fill-opacity:1;fill-rule:nonzero;stroke:none"
             d="m 0,0 c 0.211,0.566 0.471,1.592 0.576,2.293 l 0.94,0.096 C 1.295,1.574 0.873,0.508 0.605,0.059 L 0,0 z"
             inkscape:connector-curvature="0" />
        </g>
        <g
           transform="translate(396.9072,455.1631)"
           id="g3543">
          <path
             id="path3545"
             style="fill:#373535;fill-opacity:1;fill-rule:nonzero;stroke:none"
             d="m 0,0 c -0.307,-0.154 -0.92,-0.307 -1.707,-0.307 -1.824,0 -3.195,1.153 -3.195,3.272 0,2.025 1.371,3.398 3.377,3.398 0.806,0 1.314,-0.174 1.535,-0.289 L -0.191,5.393 C -0.508,5.547 -0.959,5.66 -1.496,5.66 -3.012,5.66 -4.02,4.693 -4.02,2.994 c 0,-1.582 0.911,-2.599 2.485,-2.599 0.51,0 1.027,0.103 1.363,0.267 L 0,0 z"
             inkscape:connector-curvature="0" />
        </g>
        <g
           transform="translate(398.3408,457.2646)"
           id="g3547">
          <path
             id="path3549"
             style="fill:#373535;fill-opacity:1;fill-rule:nonzero;stroke:none"
             d="m 0,0 c 0,-1.016 0.584,-1.785 1.41,-1.785 0.805,0 1.41,0.758 1.41,1.805 0,0.787 -0.394,1.785 -1.39,1.785 C 0.432,1.805 0,0.883 0,0 m 3.684,0.049 c 0,-1.719 -1.19,-2.467 -2.313,-2.467 -1.256,0 -2.226,0.922 -2.226,2.389 0,1.554 1.017,2.467 2.302,2.467 1.334,0 2.237,-0.969 2.237,-2.389"
             inkscape:connector-curvature="0" />
        </g>
        <path
           id="path3551"
           style="fill:#373535;fill-opacity:1;fill-rule:nonzero;stroke:none"
           d="m 403.093,461.765 0.844,0 0,-6.812 -0.844,0 0,6.812 z"
           inkscape:connector-curvature="0" />
        <g
           transform="translate(405.8779,457.2646)"
           id="g3553">
          <path
             id="path3555"
             style="fill:#373535;fill-opacity:1;fill-rule:nonzero;stroke:none"
             d="m 0,0 c 0,-1.016 0.584,-1.785 1.41,-1.785 0.805,0 1.41,0.758 1.41,1.805 0,0.787 -0.394,1.785 -1.39,1.785 C 0.43,1.805 0,0.883 0,0 m 3.684,0.049 c 0,-1.719 -1.19,-2.467 -2.313,-2.467 -1.256,0 -2.226,0.922 -2.226,2.389 0,1.554 1.017,2.467 2.302,2.467 1.334,0 2.237,-0.969 2.237,-2.389"
             inkscape:connector-curvature="0" />
        </g>
        <g
           transform="translate(410.6299,458.3389)"
           id="g3557">
          <path
             id="path3559"
             style="fill:#373535;fill-opacity:1;fill-rule:nonzero;stroke:none"
             d="m 0,0 c 0,0.48 -0.01,0.873 -0.039,1.258 l 0.738,0 0.039,-0.748 0.03,0 c 0.257,0.441 0.691,0.853 1.457,0.853 0.634,0 1.115,-0.383 1.316,-0.931 l 0.018,0 c 0.144,0.259 0.326,0.461 0.519,0.605 0.277,0.211 0.584,0.326 1.027,0.326 0.614,0 1.526,-0.404 1.526,-2.015 l 0,-2.735 -0.826,0 0,2.629 c 0,0.893 -0.326,1.43 -1.008,1.43 C 4.318,0.672 3.943,0.316 3.799,-0.096 3.762,-0.211 3.732,-0.363 3.732,-0.518 l 0,-2.869 -0.826,0 0,2.783 C 2.906,0.135 2.58,0.672 1.937,0.672 1.41,0.672 1.025,0.25 0.893,-0.172 0.844,-0.297 0.824,-0.441 0.824,-0.586 l 0,-2.801 L 0,-3.387 0,0 z"
             inkscape:connector-curvature="0" />
        </g>
        <g
           transform="translate(419.4717,456.8135)"
           id="g3561">
          <path
             id="path3563"
             style="fill:#373535;fill-opacity:1;fill-rule:nonzero;stroke:none"
             d="m 0,0 c 0,-0.105 0.018,-0.211 0.037,-0.307 0.164,-0.586 0.652,-0.988 1.268,-0.988 0.883,0 1.41,0.719 1.41,1.785 0,0.93 -0.481,1.727 -1.383,1.727 C 0.758,2.217 0.221,1.824 0.047,1.18 0.027,1.084 0,0.969 0,0.836 L 0,0 z m -0.875,-1.861 c 0.021,0.316 0.039,0.787 0.039,1.199 l 0,5.613 0.836,0 0,-2.916 0.018,0 c 0.298,0.518 0.836,0.854 1.584,0.854 1.152,0 1.966,-0.959 1.957,-2.371 0,-1.659 -1.045,-2.485 -2.082,-2.485 -0.672,0 -1.209,0.26 -1.553,0.873 l -0.029,0 -0.04,-0.767 -0.73,0 z"
             inkscape:connector-curvature="0" />
        </g>
        <path
           id="path3565"
           style="fill:#373535;fill-opacity:1;fill-rule:nonzero;stroke:none"
           d="m 424.099,459.597 0.844,0 0,-4.645 -0.844,0 0,4.645 z m 0.939,1.304 c 0.01,-0.289 -0.201,-0.517 -0.537,-0.517 -0.297,0 -0.508,0.228 -0.508,0.517 0,0.297 0.221,0.528 0.528,0.528 0.316,0 0.517,-0.231 0.517,-0.528"
           inkscape:connector-curvature="0" />
        <g
           transform="translate(428.792,457.3232)"
           id="g3567">
          <path
             id="path3569"
             style="fill:#373535;fill-opacity:1;fill-rule:nonzero;stroke:none"
             d="m 0,0 c -0.922,0.018 -1.967,-0.145 -1.967,-1.047 0,-0.547 0.363,-0.805 0.795,-0.805 0.606,0 0.988,0.383 1.123,0.778 C -0.02,-0.988 0,-0.893 0,-0.807 L 0,0 z m 0.125,-2.371 -0.068,0.586 -0.028,0 C -0.23,-2.15 -0.73,-2.477 -1.393,-2.477 c -0.939,0 -1.42,0.663 -1.42,1.334 0,1.123 0.999,1.737 2.793,1.727 l 0,0.098 c 0,0.382 -0.105,1.074 -1.054,1.074 -0.434,0 -0.885,-0.135 -1.211,-0.346 l -0.192,0.557 c 0.385,0.248 0.94,0.412 1.526,0.412 1.42,0 1.765,-0.969 1.765,-1.9 l 0,-1.737 c 0,-0.404 0.02,-0.797 0.079,-1.113 l -0.768,0 z"
             inkscape:connector-curvature="0" />
        </g>
        <g
           transform="translate(320.0757,543.4302)"
           id="g3571">
          <path
             id="path3573"
             style="fill:#b4d4ec;fill-opacity:1;fill-rule:evenodd;stroke:none"
             d="m 0,0 c -17.654,1.15 -35.688,-1.208 -52.822,-5.438 -8.498,-2.098 -16.862,-4.724 -25.047,-7.83 -6.783,-2.573 -13.373,-6.525 -20.783,-6.642 -0.448,-0.007 -4.547,-0.072 -4.131,1.092 0.359,1.01 7.521,4.797 9.668,5.996 7.502,4.189 15.271,7.872 23.261,11.009 16.106,6.322 33.237,10.719 50.545,11.65 17.461,0.939 34.685,-0.374 51.699,-4.612 16.692,-4.161 32.727,-10.884 47.658,-19.466 7.44,-4.277 14.623,-9.096 21.321,-14.484 1.589,-1.28 3.146,-2.604 4.673,-3.962 0.831,-0.737 3.37,-2.292 3.637,-3.396 0.467,-1.931 -3.138,0.749 -3.228,0.808 -2.041,1.331 -4.114,2.615 -6.209,3.857 -14.953,8.857 -30.994,16.117 -47.481,21.523 -8.76,2.874 -17.683,5.261 -26.746,6.949 C 17.57,-1.375 8.619,0.175 0,0 -2.893,0.188 3.758,0.076 0,0"
             inkscape:connector-curvature="0" />
        </g>
      </g>
    </g>
  </g>
</svg>
